<svg xmlns="http://www.w3.org/2000/svg" viewBox="0 0 512 512" role="img" aria-label="BS Car Booking">
  <defs>
    <linearGradient id="bg" x1="64" y1="40" x2="448" y2="472" gradientUnits="userSpaceOnUse">
      <stop offset="0" stop-color="#151515"/>
      <stop offset="0.58" stop-color="#050505"/>
      <stop offset="1" stop-color="#22120d"/>
    </linearGradient>
    <linearGradient id="gold" x1="95" y1="163" x2="426" y2="343" gradientUnits="userSpaceOnUse">
      <stop offset="0" stop-color="#f0d394"/>
      <stop offset="0.45" stop-color="#b88d4f"/>
      <stop offset="1" stop-color="#f4ddb0"/>
    </linearGradient>
    <linearGradient id="red" x1="236" y1="70" x2="280" y2="166" gradientUnits="userSpaceOnUse">
      <stop offset="0" stop-color="#e42632"/>
      <stop offset="1" stop-color="#7b0910"/>
    </linearGradient>
  </defs>
  <rect width="512" height="512" rx="112" fill="url(#bg)"/>
  <path d="M96 416h320" stroke="#72583a" stroke-width="2" opacity=".45"/>
  <path d="M256 64l45 17v63l-45 39-45-39V81z" fill="url(#red)" stroke="#d7b77a" stroke-width="8" stroke-linejoin="round"/>
  <path d="M256 78v91" stroke="#f4d9a4" stroke-width="5" stroke-linecap="round"/>
  <path d="M109 304c29-47 68-74 118-80l52-5c58-6 103 13 137 58l23 31h-45c-13-25-35-38-65-38H201c-36 0-64 13-84 38H84z" fill="none" stroke="url(#gold)" stroke-width="19" stroke-linecap="round" stroke-linejoin="round"/>
  <path d="M152 267h167c31 0 56 10 75 31" fill="none" stroke="#ffffff" stroke-width="7" stroke-linecap="round" opacity=".64"/>
  <circle cx="168" cy="330" r="37" fill="#090909" stroke="url(#gold)" stroke-width="11"/>
  <circle cx="168" cy="330" r="12" fill="#caa36b"/>
  <circle cx="360" cy="330" r="37" fill="#090909" stroke="url(#gold)" stroke-width="11"/>
  <circle cx="360" cy="330" r="12" fill="#caa36b"/>
  <path d="M98 382h318" stroke="#caa36b" stroke-width="8" stroke-linecap="round"/>
  <text x="256" y="438" text-anchor="middle" fill="#f6ead1" font-family="Inter, Arial, sans-serif" font-size="38" font-weight="800" letter-spacing="7">BOOKING</text>
</svg>
